<svg xmlns="http://www.w3.org/2000/svg" data-name="Layer 1" viewBox="0 0 32 32"><path d="M5.937,9.737a9.017,9.017,0,0,1,.2.942c0,.006.048.326.071.662A15.3,15.3,0,0,1,5.925,14.4a.5.5,0,0,0,.491.594H11.5a.5.5,0,0,0,.366-.841,3.646,3.646,0,0,1-.951-2.68,3.589,3.589,0,0,1,.987-2.2l17.07,1.06c.061,0,.122.006.182.006a2.852,2.852,0,1,0-.176-5.7L11.725,5.68,9.891,5.451a6.276,6.276,0,0,1,.254-1.374A6.907,6.907,0,0,1,12.32.884a.5.5,0,0,0-.4-.878A7.273,7.273,0,0,0,8.169,1.725C5.309,4.251,5.643,8.541,5.889,9.55Zm6.272-3.084L29.037,5.644a1.852,1.852,0,1,1,0,3.7L12.208,8.3ZM8.831,2.474a6.038,6.038,0,0,1,1.544-.986,7.389,7.389,0,0,0-1.187,2.3,7.307,7.307,0,0,0-.313,2.1.5.5,0,0,0,.438.5l1.9.237V8.556A4.606,4.606,0,0,0,9.918,11.4a4.525,4.525,0,0,0,.605,2.594H7.01a13.773,13.773,0,0,0,.2-2.722c-.026-.379-.08-.739-.08-.742A10.014,10.014,0,0,0,6.9,9.487l-.044-.173C6.658,8.481,6.371,4.647,8.831,2.474ZM29.5,25H10.086l.873-5.48A2.5,2.5,0,0,0,12,17.5a.5.5,0,0,0-.5-.5h-5a.5.5,0,0,0-.5.5,2.5,2.5,0,0,0,1.041,2.02L7.914,25H2.5A2.5,2.5,0,0,0,0,27.5v2A2.5,2.5,0,0,0,2.5,32H22.374c.05,0,.1.006.149.006.014,0,.025-.006.039-.006H29.5A2.5,2.5,0,0,0,32,29.5v-2A2.5,2.5,0,0,0,29.5,25ZM7.751,18.791A1.5,1.5,0,0,1,7.086,18h3.827a1.5,1.5,0,0,1-.665.791.5.5,0,0,0-.242.354L9.073,25H8.927l-.933-5.856A.5.5,0,0,0,7.751,18.791ZM2.5,31A1.5,1.5,0,0,1,1,29.5v-.406a9.755,9.755,0,0,1,3.048-.017A9.935,9.935,0,0,1,8.521,31Zm7.569,0A11.1,11.1,0,0,0,4.2,28.089,10.738,10.738,0,0,0,1,28.083V27.5A1.5,1.5,0,0,1,2.5,26h8.4a5.016,5.016,0,0,0,2.626,3.255,3.859,3.859,0,0,0,2.627-.016,3.836,3.836,0,0,1,2.287-.1A3.632,3.632,0,0,1,20.3,30.619c.1.128.2.256.308.381ZM31,29.5A1.5,1.5,0,0,1,29.5,31H24.585c.069-.062.139-.12.209-.183a7.127,7.127,0,0,1,2.342-1.559A6.98,6.98,0,0,1,31,29.044Zm0-1.469a7.881,7.881,0,0,0-4.219.293,8.07,8.07,0,0,0-2.658,1.75c-.7.634-1.1.966-1.692.925h-.025c-.557-.045-.836-.372-1.32-.995a4.568,4.568,0,0,0-2.355-1.816,4.765,4.765,0,0,0-2.834.083,2.925,2.925,0,0,1-2,.056A3.835,3.835,0,0,1,11.958,26H29.5A1.5,1.5,0,0,1,31,27.5Z"/></svg>