<svg xmlns="http://www.w3.org/2000/svg" width="64" height="64" enable-background="new" viewBox="0 0 64 64"><path style="font-feature-settings:normal;font-variant-alternates:normal;font-variant-caps:normal;font-variant-east-asian:normal;font-variant-ligatures:normal;font-variant-numeric:normal;font-variant-position:normal;font-variation-settings:normal;inline-size:0;isolation:auto;mix-blend-mode:normal;shape-margin:0;shape-padding:0;text-decoration-color:#000;text-decoration-line:none;text-decoration-style:solid;text-indent:0;text-orientation:mixed;text-transform:none" d="m32 4c-1.6447 0-3 1.3553-3 3v1.1875c-1.1573 0.41736-2 1.5193-2 2.8125v6c0 1.2932 0.84267 2.3951 2 2.8125v2.1875h-15c-3.3019 0-6 2.6981-6 6s2.6981 6 6 6h15v14.152c-3.0939 0.3117-5.9252 1.0965-8.2852 2.248-3.1047 1.5149-5.4389 3.6705-6.334 6.3145-0.28978 0.85599-0.036289 1.773 0.49219 2.3613s1.2963 0.92383 2.127 0.92383h30c0.83062 0 1.5985-0.33549 2.127-0.92383 0.52848-0.58834 0.78197-1.5053 0.49219-2.3613-0.89506-2.6439-3.2293-4.7995-6.334-6.3145-2.36-1.1515-5.1912-1.9363-8.2852-2.248v-14.34c1.1573-0.41736 2-1.5193 2-2.8125v-6c0-1.2932-0.84267-2.3951-2-2.8125v-2.1875h15c3.3019 0 6-2.6981 6-6s-2.6981-6-6-6h-15v-1c0-1.6447-1.3553-3-3-3zm0 2c0.5713 0 1 0.4287 1 1v1h-2v-1c0-0.5713 0.4287-1 1-1zm-2 4h20c2.221 0 4 1.779 4 4s-1.779 4-4 4h-20c-0.56413 0-1-0.43587-1-1v-6c0-0.56413 0.43587-1 1-1zm1 10h2v2h-2v-2zm-17 4h20c0.56413 0 1 0.43587 1 1v6c0 0.56413-0.43587 1-1 1h-20c-2.221 0-4-1.779-4-4s1.779-4 4-4zm17 10h2v14.025c-0.33226-0.01093-0.6632-0.025391-1-0.025391s-0.66774 0.014461-1 0.025391v-14.025zm1 16c3.9835 0 7.6261 0.84171 10.408 2.1992s4.6601 3.2197 5.3164 5.1582c0.062823 0.18557 0.033733 0.24959-0.085937 0.38281-0.11967 0.13322-0.36473 0.25977-0.63867 0.25977h-30c-0.27394 0-0.519-0.12654-0.63867-0.25977s-0.14876-0.19724-0.085937-0.38281c0.65626-1.9385 2.5343-3.8007 5.3164-5.1582 2.7821-1.3575 6.4248-2.1992 10.408-2.1992z" color="#000"/></svg>