<svg xmlns="http://www.w3.org/2000/svg" width="512" height="512" viewBox="0 0 512 512"><g transform="scale(8)"><path d="M42,17h-15v-11c0,-0.552 -0.448,-1 -1,-1c-0.552,0 -1,0.448 -1,1v11h-3c-0.552,0 -1,0.448 -1,1v40c0,0.553 0.448,1 1,1h20c0.553,0 1,-0.447 1,-1v-40c0,-0.552 -0.447,-1 -1,-1Zm-1,40h-18v-38h18v38Z"/><path d="M25 26v12c0 .553.448 1 1 1h12c.553 0 1-.447 1-1v-12c0-.552-.447-1-1-1h-12c-.552 0-1 .448-1 1zm2 1h10v10h-10v-10zM30 23h4c.553 0 1-.448 1-1 0-.552-.447-1-1-1h-4c-.552 0-1 .448-1 1 0 .552.448 1 1 1zM30 41h-4c-.552 0-1 .447-1 1 0 .553.448 1 1 1h4c.552 0 1-.447 1-1 0-.553-.448-1-1-1zM38 41h-4c-.553 0-1 .447-1 1 0 .553.447 1 1 1h4c.553 0 1-.447 1-1 0-.553-.447-1-1-1zM30 45h-4c-.552 0-1 .447-1 1 0 .553.448 1 1 1h4c.552 0 1-.447 1-1 0-.553-.448-1-1-1zM38 45h-4c-.553 0-1 .447-1 1 0 .553.447 1 1 1h4c.553 0 1-.447 1-1 0-.553-.447-1-1-1zM30 49h-4c-.552 0-1 .447-1 1 0 .553.448 1 1 1h4c.552 0 1-.447 1-1 0-.553-.448-1-1-1zM38 49h-4c-.553 0-1 .447-1 1 0 .553.447 1 1 1h4c.553 0 1-.447 1-1 0-.553-.447-1-1-1zM30 53h-4c-.552 0-1 .447-1 1 0 .553.448 1 1 1h4c.552 0 1-.447 1-1 0-.553-.448-1-1-1zM38 53h-4c-.553 0-1 .447-1 1 0 .553.447 1 1 1h4c.553 0 1-.447 1-1 0-.553-.447-1-1-1z"/></g></svg>